<svg 
 xmlns="http://www.w3.org/2000/svg"
 xmlns:xlink="http://www.w3.org/1999/xlink"
 width="21px" height="21px">
<defs>
<filter id="Filter_0">
    <feFlood flood-color="rgb(28, 53, 244)" flood-opacity="1" result="floodOut" />
    <feComposite operator="atop" in="floodOut" in2="SourceGraphic" result="compOut" />
    <feBlend mode="normal" in="compOut" in2="SourceGraphic" />
</filter>

</defs>
<g filter="url(#Filter_0)">
<path fill-rule="evenodd"  fill="rgb(0, 0, 0)"
 d="M4.318,0.375 C3.267,0.375 2.367,0.749 1.620,1.495 C0.873,2.242 0.500,3.141 0.500,4.193 L0.500,16.922 C0.500,17.974 0.873,18.874 1.620,19.620 C2.367,20.367 3.267,20.741 4.318,20.741 L11.372,20.741 L11.372,12.852 L8.721,12.852 L8.721,9.775 L11.372,9.775 L11.372,7.508 C11.372,6.218 11.733,5.219 12.453,4.511 C13.173,3.804 14.135,3.451 15.337,3.451 C16.353,3.451 17.140,3.491 17.697,3.570 L17.697,6.315 L16.079,6.328 C15.478,6.328 15.074,6.452 14.866,6.699 C14.658,6.947 14.555,7.318 14.555,7.813 L14.555,9.775 L17.591,9.775 L17.193,12.852 L14.555,12.852 L14.555,20.741 L17.047,20.741 C18.099,20.741 18.999,20.367 19.746,19.620 C20.492,18.874 20.866,17.974 20.866,16.922 L20.866,4.193 C20.866,3.141 20.492,2.242 19.746,1.495 C18.999,0.749 18.099,0.375 17.047,0.375 L4.318,0.375 Z"/>
</g>
</svg>