<svg 
 xmlns="http://www.w3.org/2000/svg"
 xmlns:xlink="http://www.w3.org/1999/xlink"
 width="21px" height="21px">
<defs>
<filter id="Filter_0">
    <feFlood flood-color="rgb(244, 41, 41)" flood-opacity="1" result="floodOut" />
    <feComposite operator="atop" in="floodOut" in2="SourceGraphic" result="compOut" />
    <feBlend mode="normal" in="compOut" in2="SourceGraphic" />
</filter>

</defs>
<g filter="url(#Filter_0)">
<path fill-rule="evenodd"  fill="rgb(0, 0, 0)"
 d="M10.827,14.344 C10.788,14.210 10.749,14.096 10.710,14.000 C10.671,13.905 10.597,13.792 10.489,13.662 C10.380,13.532 10.298,13.435 10.242,13.370 C10.185,13.305 10.079,13.209 9.923,13.083 C9.767,12.958 9.668,12.880 9.624,12.849 C9.581,12.820 9.468,12.737 9.286,12.603 C9.104,12.468 9.005,12.397 8.987,12.388 C8.892,12.371 8.758,12.362 8.584,12.362 C8.212,12.362 7.845,12.395 7.486,12.460 C7.126,12.525 6.771,12.633 6.420,12.785 C6.069,12.936 5.785,13.160 5.568,13.454 C5.352,13.749 5.243,14.096 5.243,14.494 C5.243,14.875 5.339,15.214 5.529,15.508 C5.720,15.803 5.971,16.033 6.283,16.197 C6.595,16.362 6.922,16.485 7.265,16.568 C7.607,16.650 7.956,16.691 8.311,16.691 C9.013,16.691 9.618,16.533 10.125,16.217 C10.632,15.901 10.885,15.413 10.885,14.754 C10.885,14.616 10.866,14.479 10.827,14.344 ZM9.696,6.278 C9.544,5.793 9.293,5.355 8.942,4.965 C8.591,4.575 8.186,4.380 7.726,4.380 C7.206,4.380 6.808,4.566 6.530,4.939 C6.253,5.312 6.114,5.762 6.114,6.291 C6.114,6.742 6.190,7.201 6.342,7.669 C6.493,8.137 6.743,8.555 7.089,8.924 C7.436,9.292 7.839,9.476 8.298,9.476 C8.810,9.476 9.208,9.305 9.494,8.963 C9.780,8.620 9.923,8.189 9.923,7.669 C9.923,7.227 9.847,6.763 9.696,6.278 ZM10.222,4.328 C10.656,4.770 10.970,5.162 11.165,5.505 C11.360,5.847 11.457,6.278 11.457,6.798 C11.457,7.197 11.390,7.554 11.256,7.870 C11.121,8.187 10.959,8.445 10.768,8.644 C10.578,8.844 10.387,9.026 10.196,9.190 C10.006,9.355 9.843,9.526 9.709,9.704 C9.574,9.881 9.507,10.065 9.507,10.256 C9.507,10.447 9.594,10.640 9.767,10.835 C9.941,11.029 10.153,11.220 10.404,11.407 C10.656,11.593 10.907,11.799 11.158,12.024 C11.410,12.250 11.622,12.538 11.795,12.889 C11.969,13.239 12.055,13.628 12.055,14.052 C12.055,14.616 11.912,15.122 11.626,15.573 C11.340,16.024 10.968,16.381 10.508,16.645 C10.049,16.910 9.557,17.109 9.033,17.244 C8.508,17.378 7.986,17.445 7.466,17.445 C7.137,17.445 6.805,17.419 6.472,17.367 C6.138,17.315 5.802,17.224 5.464,17.094 C5.126,16.964 4.827,16.804 4.567,16.613 C4.307,16.423 4.097,16.178 3.937,15.878 C3.776,15.580 3.696,15.244 3.696,14.871 C3.696,14.429 3.820,14.018 4.067,13.636 C4.314,13.255 4.641,12.939 5.048,12.687 C5.759,12.245 6.873,11.972 8.389,11.868 C8.043,11.435 7.869,11.028 7.869,10.646 C7.869,10.430 7.926,10.195 8.038,9.944 C7.856,9.970 7.670,9.983 7.479,9.983 C6.664,9.983 5.978,9.716 5.419,9.184 C4.860,8.651 4.580,7.981 4.580,7.175 C4.580,6.421 4.803,5.758 5.250,5.186 C5.696,4.614 6.249,4.190 6.907,3.912 C7.566,3.635 8.264,3.496 9.000,3.496 L12.445,3.496 L11.301,4.328 L10.222,4.328 ZM15.084,12.232 L14.252,12.232 L14.252,10.152 L12.588,10.152 L12.588,9.320 L14.252,9.320 L14.252,7.656 L15.084,7.656 L15.084,9.320 L16.748,9.320 L16.748,10.152 L15.084,10.152 L15.084,12.232 ZM18.978,1.682 C18.245,0.950 17.364,0.584 16.332,0.584 L3.852,0.584 C2.821,0.584 1.939,0.950 1.207,1.682 C0.474,2.415 0.108,3.296 0.108,4.328 L0.108,16.808 C0.108,17.840 0.474,18.721 1.207,19.454 C1.939,20.186 2.821,20.552 3.852,20.552 L16.332,20.552 C17.364,20.552 18.245,20.186 18.978,19.454 C19.710,18.721 20.076,17.840 20.076,16.808 L20.076,4.328 C20.076,3.296 19.710,2.415 18.978,1.682 Z"/>
</g>
</svg>