<svg 
 xmlns="http://www.w3.org/2000/svg"
 xmlns:xlink="http://www.w3.org/1999/xlink"
 width="21px" height="21px">
<defs>
<linearGradient id="PSgrad_0" x1="0%" x2="0%" y1="100%" y2="0%">
  <stop offset="0%" stop-color="rgb(198,55,156)" stop-opacity="1" />
  <stop offset="100%" stop-color="rgb(60,101,170)" stop-opacity="1" />
</linearGradient>

</defs>
<path fill-rule="evenodd"  fill="rgb(0, 0, 0)"
 d="M17.887,17.622 C17.730,17.775 17.542,17.851 17.323,17.851 L3.310,17.851 C3.083,17.851 2.893,17.775 2.740,17.622 C2.587,17.469 2.511,17.279 2.511,17.051 L2.511,8.557 L4.359,8.557 C4.184,9.107 4.097,9.680 4.097,10.274 C4.097,11.952 4.708,13.383 5.932,14.567 C7.155,15.751 8.628,16.343 10.350,16.343 C11.486,16.343 12.534,16.072 13.496,15.531 C14.457,14.989 15.217,14.252 15.777,13.322 C16.336,12.391 16.616,11.375 16.616,10.274 C16.616,9.680 16.528,9.107 16.353,8.557 L18.123,8.557 L18.123,17.051 C18.123,17.279 18.045,17.469 17.887,17.622 ZM10.350,13.984 C9.240,13.984 8.289,13.602 7.498,12.837 C6.707,12.072 6.312,11.148 6.312,10.064 C6.312,8.981 6.707,8.056 7.498,7.292 C8.289,6.527 0.021,3.418 1.131,3.418 C2.249,3.418 12.423,6.527 13.214,7.292 C14.005,8.056 14.400,8.981 14.400,10.064 C14.400,11.148 14.005,12.072 13.214,12.837 C12.423,13.602 11.468,13.984 10.350,13.984 L10.350,13.984 ZM17.861,5.988 C17.686,6.162 17.472,6.250 17.219,6.250 L14.938,6.250 C14.684,6.250 14.470,6.162 14.295,5.988 C14.120,5.813 14.033,5.599 14.033,5.345 L14.033,3.182 C14.033,2.938 14.120,2.726 14.295,2.547 C14.470,2.367 14.684,2.278 14.938,2.278 L17.219,2.278 C17.472,2.278 17.686,2.367 17.861,2.547 C18.036,2.726 18.123,2.938 18.123,3.182 L18.123,5.345 C18.123,5.599 18.036,5.813 17.861,5.988 ZM19.644,0.796 C19.137,0.289 18.529,0.036 17.822,0.036 L2.851,0.036 C2.144,0.036 1.536,0.289 1.029,0.796 C0.522,1.303 0.269,1.911 0.269,2.619 L0.269,17.589 C0.269,18.297 0.522,18.904 1.029,19.411 C1.536,19.917 2.144,20.171 2.851,20.171 L17.822,20.171 C18.529,20.171 19.137,19.917 19.644,19.411 C20.150,18.904 20.404,18.297 20.404,17.589 L20.404,2.619 C20.404,1.911 20.150,1.303 19.644,0.796 Z"/>
<path fill="url(#PSgrad_0)"
 d="M17.887,17.622 C17.730,17.775 17.542,17.851 17.323,17.851 L3.310,17.851 C3.083,17.851 2.893,17.775 2.740,17.622 C2.587,17.469 2.511,17.279 2.511,17.051 L2.511,8.557 L4.359,8.557 C4.184,9.107 4.097,9.680 4.097,10.274 C4.097,11.952 4.708,13.383 5.932,14.567 C7.155,15.751 8.628,16.343 10.350,16.343 C11.486,16.343 12.534,16.072 13.496,15.531 C14.457,14.989 15.217,14.252 15.777,13.322 C16.336,12.391 16.616,11.375 16.616,10.274 C16.616,9.680 16.528,9.107 16.353,8.557 L18.123,8.557 L18.123,17.051 C18.123,17.279 18.045,17.469 17.887,17.622 ZM10.350,13.984 C9.240,13.984 8.289,13.602 7.498,12.837 C6.707,12.072 6.312,11.148 6.312,10.064 C6.312,8.981 6.707,8.056 7.498,7.292 C8.289,6.527 0.021,3.418 1.131,3.418 C2.249,3.418 12.423,6.527 13.214,7.292 C14.005,8.056 14.400,8.981 14.400,10.064 C14.400,11.148 14.005,12.072 13.214,12.837 C12.423,13.602 11.468,13.984 10.350,13.984 L10.350,13.984 ZM17.861,5.988 C17.686,6.162 17.472,6.250 17.219,6.250 L14.938,6.250 C14.684,6.250 14.470,6.162 14.295,5.988 C14.120,5.813 14.033,5.599 14.033,5.345 L14.033,3.182 C14.033,2.938 14.120,2.726 14.295,2.547 C14.470,2.367 14.684,2.278 14.938,2.278 L17.219,2.278 C17.472,2.278 17.686,2.367 17.861,2.547 C18.036,2.726 18.123,2.938 18.123,3.182 L18.123,5.345 C18.123,5.599 18.036,5.813 17.861,5.988 ZM19.644,0.796 C19.137,0.289 18.529,0.036 17.822,0.036 L2.851,0.036 C2.144,0.036 1.536,0.289 1.029,0.796 C0.522,1.303 0.269,1.911 0.269,2.619 L0.269,17.589 C0.269,18.297 0.522,18.904 1.029,19.411 C1.536,19.917 2.144,20.171 2.851,20.171 L17.822,20.171 C18.529,20.171 19.137,19.917 19.644,19.411 C20.150,18.904 20.404,18.297 20.404,17.589 L20.404,2.619 C20.404,1.911 20.150,1.303 19.644,0.796 Z"/>
</svg>