<svg 
 xmlns="http://www.w3.org/2000/svg"
 xmlns:xlink="http://www.w3.org/1999/xlink"
 width="21px" height="21px">
<defs>
<filter id="Filter_0">
    <feFlood flood-color="rgb(0, 0, 255)" flood-opacity="1" result="floodOut" />
    <feComposite operator="atop" in="floodOut" in2="SourceGraphic" result="compOut" />
    <feBlend mode="normal" in="compOut" in2="SourceGraphic" />
</filter>

</defs>
<g filter="url(#Filter_0)">
<path fill-rule="evenodd"  fill="rgb(0, 0, 0)"
 d="M3.638,8.382 L6.697,8.382 L6.697,17.572 L3.638,17.572 L3.638,8.382 ZM6.419,6.680 C6.101,6.985 5.682,7.137 5.161,7.137 L5.148,7.137 C4.645,7.137 4.236,6.985 3.923,6.680 C3.610,6.376 3.453,5.998 3.453,5.548 C3.453,5.089 3.614,4.709 3.936,4.409 C4.258,4.109 4.676,3.959 5.188,3.959 C5.700,3.959 6.110,4.109 6.419,4.409 C6.728,4.709 6.887,5.089 6.896,5.548 C6.896,5.998 6.737,6.376 6.419,6.680 ZM14.643,12.659 C14.643,11.273 14.130,10.580 13.106,10.580 C12.718,10.580 12.391,10.688 12.127,10.904 C11.862,11.121 11.663,11.383 11.531,11.692 C11.469,11.851 11.438,12.098 11.438,12.434 L11.438,17.572 L8.379,17.572 C8.405,12.028 8.405,8.964 8.379,8.382 L11.438,8.382 L11.438,9.719 L11.411,9.719 C12.056,8.686 12.978,8.170 14.179,8.170 C15.238,8.170 16.090,8.519 16.735,9.216 C17.379,9.913 17.701,10.942 17.701,12.301 L17.701,17.572 L14.643,17.572 L14.643,12.659 ZM19.721,1.661 C18.975,0.915 18.077,0.542 17.026,0.542 L4.314,0.542 C3.263,0.542 2.365,0.915 1.619,1.661 C0.873,2.407 0.500,3.306 0.500,4.356 L0.500,17.068 C0.500,18.119 0.873,19.017 1.619,19.763 C2.365,20.509 3.263,20.882 4.314,20.882 L17.026,20.882 C18.077,20.882 18.975,20.509 19.721,19.763 C20.467,19.017 20.840,18.119 20.840,17.068 L20.840,4.356 C20.840,3.306 20.467,2.407 19.721,1.661 Z"/>
</g>
</svg>