<svg 
 xmlns="http://www.w3.org/2000/svg"
 xmlns:xlink="http://www.w3.org/1999/xlink"
 width="21px" height="21px">
<defs>
<filter id="Filter_0">
    <feFlood flood-color="rgb(86, 168, 225)" flood-opacity="1" result="floodOut" />
    <feComposite operator="atop" in="floodOut" in2="SourceGraphic" result="compOut" />
    <feBlend mode="normal" in="compOut" in2="SourceGraphic" />
</filter>

</defs>
<g filter="url(#Filter_0)">
<path fill-rule="evenodd"  fill="rgb(0, 0, 0)"
 d="M15.648,8.132 C15.657,8.210 15.661,8.327 15.661,8.482 C15.661,9.210 15.555,9.939 15.343,10.670 C15.131,11.402 14.806,12.103 14.369,12.774 C13.932,13.445 13.410,14.038 12.804,14.553 C12.198,15.068 11.471,15.479 10.623,15.786 C9.775,16.094 8.866,16.247 7.896,16.247 C6.390,16.247 4.996,15.840 3.715,15.027 C3.923,15.053 4.139,15.065 4.365,15.065 C5.620,15.065 6.749,14.676 7.754,13.897 C7.165,13.889 6.639,13.707 6.176,13.352 C5.713,12.997 5.390,12.546 5.209,12.001 C5.434,12.036 5.602,12.053 5.715,12.053 C5.905,12.053 6.126,12.019 6.377,11.949 C5.745,11.828 5.213,11.514 4.780,11.008 C4.347,10.502 4.131,9.924 4.131,9.275 L4.131,9.249 C4.590,9.465 5.022,9.577 5.429,9.586 C4.642,9.058 4.248,8.301 4.248,7.314 C4.248,6.829 4.373,6.370 4.624,5.937 C5.308,6.777 6.139,7.448 7.117,7.950 C8.095,8.453 9.143,8.734 10.260,8.794 C10.216,8.630 10.195,8.422 10.195,8.171 C10.195,7.418 10.461,6.775 10.993,6.243 C11.525,5.710 12.168,5.444 12.921,5.444 C13.718,5.444 14.380,5.730 14.908,6.301 C15.505,6.189 16.085,5.968 16.648,5.639 C16.431,6.306 16.029,6.812 15.440,7.158 C16.003,7.080 16.527,6.933 17.011,6.717 C16.648,7.271 16.193,7.742 15.648,8.132 L15.648,8.132 ZM19.238,1.555 C18.507,0.824 17.626,0.458 16.596,0.458 L4.131,0.458 C3.101,0.458 2.220,0.824 1.489,1.555 C0.757,2.287 0.391,3.168 0.391,4.198 L0.391,16.663 C0.391,17.693 0.757,18.574 1.489,19.305 C2.220,20.036 3.101,20.402 4.131,20.402 L16.596,20.402 C17.626,20.402 18.507,20.036 19.238,19.305 C19.970,18.574 20.335,17.693 20.335,16.663 L20.335,4.198 C20.335,3.168 19.970,2.287 19.238,1.555 Z"/>
</g>
</svg>