<svg 
 xmlns="http://www.w3.org/2000/svg"
 xmlns:xlink="http://www.w3.org/1999/xlink"
 width="21px" height="21px">
<defs>
<filter id="Filter_0">
    <feFlood flood-color="rgb(255, 0, 0)" flood-opacity="1" result="floodOut" />
    <feComposite operator="atop" in="floodOut" in2="SourceGraphic" result="compOut" />
    <feBlend mode="normal" in="compOut" in2="SourceGraphic" />
</filter>

</defs>
<g filter="url(#Filter_0)">
<path fill-rule="evenodd"  fill="rgb(0, 0, 0)"
 d="M12.232,16.788 C12.082,16.788 11.937,16.718 11.796,16.577 L11.796,13.615 C11.937,13.475 12.082,13.404 12.232,13.404 C12.488,13.404 12.616,13.624 12.616,14.065 L12.616,16.141 C12.616,16.573 12.488,16.788 12.232,16.788 L12.232,16.788 ZM15.048,14.078 C15.048,13.629 15.194,13.404 15.484,13.404 C15.775,13.404 15.921,13.629 15.921,14.078 L15.921,14.528 L15.048,14.528 L15.048,14.078 ZM4.432,11.011 L4.432,11.936 L5.463,11.936 L5.463,17.529 L6.441,17.529 L6.441,11.936 L7.499,11.936 L7.499,11.011 L4.432,11.011 ZM9.271,12.677 L9.271,16.379 C9.077,16.652 8.892,16.788 8.715,16.788 C8.592,16.788 8.526,16.722 8.517,16.590 C8.508,16.573 8.504,16.458 8.504,16.246 L8.504,12.677 L7.631,12.677 L7.631,16.511 C7.631,16.846 7.658,17.084 7.711,17.225 C7.790,17.472 7.975,17.595 8.266,17.595 C8.592,17.595 8.927,17.397 9.271,17.000 L9.271,17.529 L10.156,17.529 L10.156,12.677 L9.271,12.677 ZM13.396,13.166 C13.290,12.796 13.056,12.611 12.695,12.611 C12.378,12.611 12.078,12.787 11.796,13.139 L11.796,11.011 L10.910,11.011 L10.910,17.529 L11.796,17.529 L11.796,17.053 C12.087,17.414 12.386,17.595 12.695,17.595 C13.056,17.595 13.290,17.410 13.396,17.040 C13.457,16.855 13.488,16.533 13.488,16.074 L13.488,14.144 C13.488,13.677 13.457,13.351 13.396,13.166 L13.396,13.166 ZM15.908,15.850 C15.908,15.947 15.908,16.041 15.908,16.134 C15.908,16.227 15.905,16.299 15.901,16.352 C15.896,16.405 15.894,16.436 15.894,16.445 C15.842,16.674 15.709,16.788 15.498,16.788 C15.198,16.788 15.048,16.564 15.048,16.114 L15.048,15.255 L16.807,15.255 L16.807,14.250 C16.807,13.739 16.714,13.360 16.529,13.113 C16.291,12.778 15.947,12.611 15.498,12.611 C15.048,12.611 14.696,12.778 14.440,13.113 C14.264,13.351 14.176,13.730 14.176,14.250 L14.176,15.955 C14.176,16.476 14.268,16.855 14.453,17.093 C14.709,17.428 15.066,17.595 15.524,17.595 C15.991,17.595 16.344,17.419 16.582,17.066 C16.688,16.907 16.754,16.731 16.780,16.537 C16.798,16.414 16.807,16.225 16.807,15.969 L16.807,15.850 L15.908,15.850 ZM10.421,4.268 C10.139,4.268 9.998,4.497 9.998,4.956 L9.998,7.018 C9.998,7.468 10.139,7.692 10.421,7.692 C10.703,7.692 10.844,7.468 10.844,7.018 L10.844,4.956 C10.844,4.497 10.703,4.268 10.421,4.268 ZM17.626,17.820 C17.538,18.199 17.351,18.520 17.064,18.785 C16.778,19.049 16.445,19.204 16.066,19.248 C14.859,19.380 13.043,19.446 10.619,19.446 C8.195,19.446 6.380,19.380 5.172,19.248 C4.793,19.204 4.460,19.049 4.174,18.785 C3.887,18.520 3.700,18.199 3.612,17.820 C3.436,17.079 3.348,15.934 3.348,14.382 C3.348,12.857 3.436,11.712 3.612,10.945 C3.700,10.557 3.887,10.233 4.174,9.973 C4.460,9.713 4.797,9.561 5.185,9.517 C6.384,9.385 8.195,9.319 10.619,9.319 C13.052,9.319 14.868,9.385 16.066,9.517 C16.445,9.561 16.780,9.713 17.071,9.973 C17.362,10.233 17.551,10.557 17.639,10.945 C17.807,11.676 17.891,12.822 17.891,14.382 C17.891,15.934 17.803,17.079 17.626,17.820 L17.626,17.820 ZM7.909,8.433 L6.930,8.433 L6.930,5.775 C6.833,5.291 6.631,4.594 6.322,3.686 C6.261,3.484 6.159,3.180 6.018,2.774 C5.877,2.369 5.771,2.065 5.701,1.862 L6.732,1.862 L7.433,4.440 L8.107,1.862 L9.099,1.862 L7.909,5.775 L7.909,8.433 ZM11.452,7.996 C11.196,8.332 10.853,8.499 10.421,8.499 C9.971,8.499 9.628,8.332 9.390,7.996 C9.205,7.741 9.112,7.357 9.112,6.846 L9.112,5.127 C9.112,4.616 9.205,4.233 9.390,3.977 C9.628,3.642 9.971,3.475 10.421,3.475 C10.853,3.475 11.196,3.642 11.452,3.977 C11.637,4.233 11.730,4.616 11.730,5.127 L11.730,6.846 C11.730,7.375 11.637,7.758 11.452,7.996 L11.452,7.996 ZM14.123,7.904 C13.761,8.301 13.422,8.499 13.105,8.499 C12.823,8.499 12.633,8.380 12.536,8.142 C12.483,7.983 12.457,7.741 12.457,7.415 L12.457,3.541 L13.343,3.541 L13.343,7.137 C13.343,7.349 13.347,7.463 13.356,7.481 C13.365,7.622 13.435,7.692 13.567,7.692 C13.744,7.692 13.929,7.556 14.123,7.282 L14.123,3.541 L15.008,3.541 L15.008,8.433 L14.123,8.433 L14.123,7.904 ZM19.656,1.723 C18.911,0.978 18.014,0.606 16.965,0.606 L4.273,0.606 C3.224,0.606 2.327,0.978 1.583,1.723 C0.838,2.468 0.465,3.365 0.465,4.414 L0.465,17.106 C0.465,18.155 0.838,19.051 1.583,19.796 C2.327,20.541 3.224,20.913 4.273,20.913 L16.965,20.913 C18.014,20.913 18.911,20.541 19.656,19.796 C20.400,19.051 20.773,18.155 20.773,17.106 L20.773,4.414 C20.773,3.365 20.400,2.468 19.656,1.723 Z"/>
</g>
</svg>